<svg width="50" height="50" viewBox="0 0 40 40" fill="none" xmlns="http://www.w3.org/2000/svg">
<path d="M40 20C40 8.9543 31.0457 0 20 0C8.9543 0 0 8.9543 0 20C0 31.0457 8.9543 40 20 40C31.0457 40 40 31.0457 40 20Z" fill="#F3F3F3"/>
<path d="M24.4105 26.1387C24.3751 26.2089 24.3384 26.2795 24.3003 26.3502C23.8081 27.2695 23.0802 28.0413 22.1913 28.5864C21.5144 28.9861 20.764 29.2456 19.9848 29.3493C19.2056 29.4531 18.4134 29.399 17.6556 29.1903C16.8977 28.9816 16.1895 28.6226 15.5733 28.1346C14.957 27.6465 14.4452 27.0395 14.0684 26.3497C13.5533 25.3684 13.2915 24.2741 13.3066 23.166C13.2861 22.0578 13.5483 20.9627 14.0684 19.9839C14.5602 19.0735 15.2874 18.3118 16.174 17.7783C17.0875 17.2465 18.1257 16.9664 19.1827 16.9664C20.2397 16.9664 21.2779 17.2465 22.1915 17.7783C23.0746 18.3173 23.8017 19.0776 24.3009 19.9839C24.3373 20.048 24.3724 20.1136 24.4063 20.1808V15.3368C24.3343 15.2875 24.2593 15.2406 24.1851 15.1929C22.9984 14.4759 21.6524 14.0644 20.2676 13.9954C18.8828 13.9264 17.5026 14.202 16.2505 14.7975C15.1713 15.3259 14.2166 16.0774 13.4495 17.0023V12.8975C13.4494 12.0005 13.093 11.1403 12.4588 10.5059C11.8246 9.87156 10.9644 9.51501 10.0674 9.51465V23.166C10.0631 24.8149 10.4857 26.4369 11.294 27.8741C12.064 29.2413 13.1833 30.3795 14.5374 31.1723C16.22 32.1614 18.1738 32.5893 20.1158 32.3941C22.0578 32.1988 23.8873 31.3906 25.3393 30.0864C24.7544 28.8505 24.4381 27.5047 24.4113 26.1377L24.4105 26.1387Z" fill="url(#paint0_linear_903_10)"/>
<path d="M31.3545 28.9359H31.7749V32.2509H31.3545C30.2988 32.266 29.2617 31.973 28.37 31.4078C27.4973 30.8511 26.7867 30.0742 26.3099 29.1555C26.2989 29.1384 26.2906 29.1195 26.281 29.1032C26.1028 28.763 25.9558 28.4074 25.842 28.0407C25.6221 27.3218 25.5133 26.5735 25.5193 25.8218V10.2305H25.9881C26.7438 10.2305 27.4685 10.5306 28.0029 11.065C28.5373 11.5993 28.8375 12.324 28.8375 13.0797V14.7782H28.9304C29.6753 14.7784 30.3904 15.0705 30.9224 15.5917C31.4545 16.113 31.7611 16.8219 31.7766 17.5666C31.7766 17.587 31.7766 17.608 31.7766 17.6284H28.8356V25.8189C28.826 26.3586 28.9357 26.8938 29.1568 27.3862C29.2656 27.62 29.4026 27.8396 29.5647 28.0401C29.7725 28.3186 30.0426 28.5446 30.3534 28.7001C30.6641 28.8557 31.007 28.9364 31.3545 28.9359Z" fill="url(#paint1_linear_903_10)"/>
<defs>
<linearGradient id="paint0_linear_903_10" x1="17.7034" y1="29.414" x2="17.7034" y2="11.1194" gradientUnits="userSpaceOnUse">
<stop stop-color="#426DCC"/>
<stop offset="0.37" stop-color="#438DD1"/>
<stop offset="0.77" stop-color="#45AAD6"/>
<stop offset="1" stop-color="#45B5D8"/>
</linearGradient>
<linearGradient id="paint1_linear_903_10" x1="28.6478" y1="8.46879" x2="28.6478" y2="29.763" gradientUnits="userSpaceOnUse">
<stop stop-color="#E88059"/>
<stop offset="1" stop-color="#BE6B49"/>
</linearGradient>
</defs>
</svg>
